<?xml version="1.0" standalone="no"?>
<!DOCTYPE svg PUBLIC "-//W3C//DTD SVG 20010904//EN"
 "http://www.w3.org/TR/2001/REC-SVG-20010904/DTD/svg10.dtd">
<svg version="1.0" xmlns="http://www.w3.org/2000/svg"
 width="665.000000pt" height="412.000000pt" viewBox="0 0 665.000000 412.000000"
 preserveAspectRatio="xMidYMid meet">

<g transform="translate(0.000000,412.000000) scale(0.100000,-0.100000)"
fill="#000000" stroke="none">
<path d="M74 4089 l-29 -30 0 -1989 0 -1990 33 -32 32 -33 3260 -3 3260 -2 0
2055 0 2055 -3263 0 -3263 0 -30 -31z m3080 -994 c23 -24 27 -25 153 -25 108
0 133 3 144 16 37 45 103 35 122 -18 10 -26 26 -38 94 -69 72 -33 90 -37 132
-32 43 5 50 3 65 -18 9 -13 16 -39 16 -57 0 -48 89 -152 130 -152 19 0 36 -9
49 -26 27 -34 26 -46 -4 -82 -24 -29 -25 -35 -25 -168 l0 -139 -120 -98 c-91
-74 -120 -104 -120 -121 0 -58 -75 -92 -118 -53 -17 16 -26 15 -128 -5 -91
-18 -113 -26 -136 -50 -34 -36 -63 -35 -99 3 -22 24 -50 37 -134 60 -98 27
-107 28 -130 13 -37 -24 -76 -14 -103 26 -13 19 -44 46 -70 59 -26 13 -82 59
-124 102 -42 44 -84 79 -91 79 -54 0 -81 86 -39 121 19 15 22 28 22 84 0 59
-3 71 -25 91 -34 32 -33 76 2 104 15 12 35 19 45 17 25 -7 134 125 130 157 -2
12 7 35 19 50 18 23 28 27 58 23 41 -5 161 48 161 71 0 22 48 62 75 62 15 0
36 -11 49 -25z m-1126 -1397 c9 -9 12 -78 12 -249 0 -203 -2 -240 -16 -253
-12 -13 -39 -16 -130 -16 l-114 0 0 265 0 265 118 0 c78 0 122 -4 130 -12z
m132 -253 l0 -265 -45 0 -45 0 0 265 0 265 45 0 45 0 0 -265z m284 243 c11
-15 16 -45 16 -85 l0 -63 -45 0 -45 0 0 45 0 45 -45 0 -45 0 0 -180 0 -180 45
0 45 0 0 45 c0 38 -3 45 -20 45 -21 0 -24 9 -14 59 7 32 7 32 63 29 l56 -3 0
-116 c0 -84 -4 -121 -14 -132 -11 -14 -33 -17 -114 -17 -146 0 -137 -17 -137
262 0 139 4 237 10 249 10 17 22 19 120 19 101 0 110 -2 124 -22z m126 -243
l0 -265 -42 0 -43 0 3 265 3 265 39 0 40 0 0 -265z m300 215 l0 -49 -32 5
c-18 3 -39 7 -45 10 -10 3 -13 -46 -13 -221 l0 -225 -45 0 -45 0 0 225 c0 175
-3 224 -12 221 -7 -3 -28 -7 -45 -10 l-33 -5 0 49 0 50 135 0 135 0 0 -50z
m272 -210 c26 -140 48 -258 48 -262 0 -5 -20 -8 -44 -8 l-45 0 -7 45 -6 45
-54 0 c-57 0 -56 1 -66 -65 -3 -16 -12 -21 -51 -23 -43 -3 -48 -1 -44 15 18
65 18 73 -3 73 -14 0 -20 7 -20 23 0 45 12 67 34 67 21 0 24 11 55 175 l33
176 61 -3 61 -3 48 -255z m168 40 l0 -220 85 0 85 0 0 -29 c0 -61 -1 -61 -136
-61 l-124 0 0 265 0 265 45 0 45 0 0 -220z m600 201 c5 -11 10 -49 10 -85 l0
-66 -45 0 -45 0 0 45 0 45 -45 0 -45 0 0 -180 0 -180 45 0 45 0 0 45 c0 39 -3
45 -20 45 -19 0 -20 4 -14 38 9 52 9 52 70 52 l54 0 0 -117 c0 -154 1 -153
-136 -153 -141 0 -134 -14 -134 265 0 280 -8 265 140 265 98 0 110 -2 120 -19z
m288 7 c9 -9 12 -79 12 -255 0 -229 -1 -243 -19 -253 -11 -5 -62 -10 -115 -10
-73 0 -98 4 -110 16 -14 13 -16 50 -16 253 0 171 3 240 12 249 8 8 49 12 118
12 69 0 110 -4 118 -12z m297 -10 c6 -25 95 -499 95 -504 0 -2 -20 -4 -44 -4
l-45 0 -7 45 -6 46 -57 -3 c-47 -3 -56 -6 -59 -23 -9 -64 -10 -65 -58 -65 -38
0 -45 3 -41 18 18 65 18 71 -6 74 -21 3 -22 6 -14 46 7 34 12 42 30 42 21 0
24 10 51 153 15 83 30 162 33 175 5 20 11 22 64 22 53 0 59 -2 64 -22z m215
-198 l0 -220 85 0 c82 0 85 -1 85 -22 0 -13 -3 -33 -6 -45 -6 -22 -10 -23
-130 -23 l-124 0 0 265 0 265 45 0 45 0 0 -220z m-2895 -445 c0 -11 -8 -21
-17 -23 -14 -3 -18 3 -18 23 0 20 4 26 18 23 9 -2 17 -12 17 -23z m52 -12 c-3
-10 -5 -4 -5 12 0 17 2 24 5 18 2 -7 2 -21 0 -30z m56 17 c-6 -22 12 -28 20
-7 3 7 6 5 6 -5 1 -19 -24 -25 -34 -8 -4 6 -4 17 -1 25 8 22 15 18 9 -5z m149
-7 c-5 -23 -7 -25 -10 -8 -2 11 -9 23 -16 27 -6 5 -3 8 10 8 18 0 20 -4 16
-27z m152 -15 c7 -5 5 -8 -6 -8 -13 0 -18 7 -17 28 1 21 2 22 6 7 3 -11 10
-23 17 -27z m136 27 c0 -8 -6 -15 -14 -15 -8 0 -17 -6 -19 -12 -3 -7 -6 -1 -6
15 -1 21 4 27 19 27 11 0 20 -7 20 -15z m65 5 c-17 -7 -17 -9 -2 -9 9 -1 17
-9 17 -18 0 -15 -2 -16 -10 -3 -9 13 -11 13 -20 0 -8 -12 -10 -9 -10 13 0 22
4 27 23 26 21 0 21 -1 2 -9z m93 3 c-10 -2 -18 -11 -18 -18 0 -7 8 -16 18 -18
15 -4 15 -5 0 -6 -9 0 -20 4 -23 9 -11 17 3 40 22 39 17 -1 17 -2 1 -6z m90 0
c-10 -2 -18 -11 -18 -20 0 -10 6 -13 16 -9 8 3 12 2 9 -4 -12 -20 -35 -10 -35
15 0 20 5 25 23 24 16 -1 18 -2 5 -6z m82 -33 c5 0 11 9 14 20 5 17 6 17 4 -2
-2 -13 -11 -24 -20 -26 -14 -3 -18 3 -17 25 1 23 2 24 6 6 2 -13 8 -23 13 -23z
m100 36 c0 -2 -7 -6 -15 -10 -8 -3 -15 -1 -15 4 0 6 7 10 15 10 8 0 15 -2 15
-4z m83 -3 c-7 -2 -19 -2 -25 0 -7 3 -2 5 12 5 14 0 19 -2 13 -5z m62 -3 c-3
-5 1 -10 9 -10 9 0 16 -7 16 -15 0 -8 -8 -15 -17 -15 -14 0 -15 2 -5 9 11 7
10 9 -3 15 -14 5 -13 26 1 26 3 0 2 -4 -1 -10z m141 3 c-11 -3 -14 -8 -9 -12
7 -4 6 -11 -3 -19 -12 -11 -14 -9 -14 13 0 20 5 25 23 24 19 -1 19 -2 3 -6z
m102 -16 c4 -20 -25 -34 -40 -19 -15 15 -1 44 19 40 10 -2 19 -11 21 -21z m67
13 c-17 -7 -17 -9 -2 -9 9 -1 17 -9 17 -18 0 -15 -2 -16 -10 -3 -9 13 -11 13
-20 0 -8 -12 -10 -9 -10 13 0 22 4 27 23 26 21 0 21 -1 2 -9z m112 -27 c-3
-10 -5 -4 -5 12 0 17 2 24 5 18 2 -7 2 -21 0 -30z m56 7 c-7 -28 -13 -25 -13
6 0 14 4 23 9 20 5 -3 7 -15 4 -26z m27 3 c0 -19 -3 -24 -10 -17 -6 6 -8 18
-4 27 9 24 14 21 14 -10z m83 14 c3 11 5 7 6 -11 1 -28 1 -29 -19 -11 -11 10
-20 23 -20 29 0 6 7 3 14 -7 14 -18 14 -18 19 0z m95 -10 c4 -20 -25 -34 -40
-19 -15 15 -1 44 19 40 10 -2 19 -11 21 -21z m138 7 c-3 -8 -2 -12 4 -9 6 3
10 0 10 -7 0 -8 -9 -14 -20 -14 -13 0 -19 5 -15 14 3 7 5 18 5 23 0 5 5 9 11
9 6 0 8 -7 5 -16z m77 9 c-7 -2 -19 -2 -25 0 -7 3 -2 5 12 5 14 0 19 -2 13 -5z
m54 -30 c-3 -10 -5 -4 -5 12 0 17 2 24 5 18 2 -7 2 -21 0 -30z m69 24 c13 16
13 15 2 -10 -8 -20 -14 -24 -20 -15 -4 7 -7 20 -7 28 1 10 3 9 6 -3 5 -18 5
-18 19 0z m79 3 c-13 -6 -15 -9 -5 -9 13 -1 13 -3 1 -10 -11 -7 -10 -10 5 -14
16 -4 16 -5 -3 -6 -18 -1 -23 4 -23 24 0 19 5 25 23 24 21 0 21 -1 2 -9z m145
-15 c0 -18 -5 -25 -20 -25 -15 0 -20 7 -20 25 0 18 5 25 20 25 15 0 20 -7 20
-25z m87 3 c-3 -8 -6 -5 -6 6 -1 11 2 17 5 13 3 -3 4 -12 1 -19z m65 13 c-11
-7 -11 -9 2 -14 21 -8 20 -27 -1 -27 -14 0 -15 2 -5 9 11 7 11 9 -2 14 -21 8
-20 27 2 27 13 0 14 -2 4 -9z m65 -28 c-3 -10 -5 -4 -5 12 0 17 2 24 5 18 2
-7 2 -21 0 -30z m76 24 c3 11 5 7 6 -11 1 -28 1 -29 -19 -11 -11 10 -20 23
-20 29 0 6 7 3 14 -7 14 -18 14 -18 19 0z m72 3 c-13 -6 -15 -9 -5 -9 13 -1
13 -3 1 -10 -11 -7 -10 -10 5 -14 16 -4 16 -5 -3 -6 -18 -1 -23 4 -23 24 0 19
5 25 23 24 21 0 21 -1 2 -9z m95 6 c0 -2 -9 -6 -20 -9 -11 -3 -18 -1 -14 4 5
9 34 13 34 5z m151 -3 c-11 -5 -11 -7 0 -14 12 -7 11 -9 -1 -9 -13 0 -13 -1 0
-10 13 -8 12 -10 -2 -10 -13 0 -18 8 -18 25 0 17 5 25 18 24 12 0 13 -2 3 -6z
m93 -35 c-3 -4 -13 -8 -22 -7 -14 0 -14 2 2 8 18 7 18 8 3 14 -9 3 -17 11 -17
17 0 5 9 2 19 -7 11 -9 18 -20 15 -25z m-1194 1 c0 -6 -4 -7 -10 -4 -5 3 -10
11 -10 16 0 6 5 7 10 4 6 -3 10 -11 10 -16z m950 0 c0 -5 -8 -9 -17 -8 -11 0
-13 3 -5 6 6 2 9 10 6 15 -4 7 -2 8 4 4 7 -4 12 -11 12 -17z m-2490 2 c0 -5
-9 -7 -20 -4 -11 3 -20 7 -20 9 0 2 9 4 20 4 11 0 20 -4 20 -9z m644 -3 c-3
-4 -12 -8 -20 -8 -8 0 -14 4 -14 8 0 4 9 8 19 8 11 0 17 -4 15 -8z m1463 -4
c-3 -3 -12 -4 -19 -1 -8 3 -5 6 6 6 11 1 17 -2 13 -5z m460 0 c-3 -3 -12 -4
-19 -1 -8 3 -5 6 6 6 11 1 17 -2 13 -5z"/>
<path d="M3085 3076 c-22 -16 -15 -50 11 -54 25 -4 47 19 38 41 -8 22 -29 28
-49 13z"/>
<path d="M3487 3074 c-13 -13 -7 -52 8 -58 27 -10 46 5 43 33 -3 26 -35 41
-51 25z"/>
<path d="M3170 3031 c0 -5 34 -34 76 -66 l75 -57 57 54 c31 29 58 59 60 66 3
9 -29 12 -132 12 -75 0 -136 -4 -136 -9z"/>
<path d="M2983 2982 c-45 -22 -53 -30 -53 -55 0 -16 -10 -38 -25 -53 -22 -22
-24 -29 -17 -82 l7 -57 88 -3 c88 -3 88 -3 118 29 22 23 35 30 54 27 19 -4 37
6 81 46 l57 51 -74 56 c-62 47 -78 54 -96 46 -15 -7 -30 -5 -54 7 -18 9 -33
16 -33 15 -1 0 -25 -12 -53 -27z"/>
<path d="M3544 2989 c-4 -7 -22 -9 -48 -6 -39 6 -44 3 -94 -45 -29 -28 -52
-51 -50 -52 2 -2 41 -31 88 -66 76 -58 89 -64 135 -65 47 -2 54 1 113 53 53
47 62 59 60 85 -2 27 -10 34 -82 68 -83 41 -110 47 -122 28z"/>
<path d="M2840 2945 c-17 -21 -8 -50 17 -53 30 -4 49 31 27 52 -19 20 -28 20
-44 1z"/>
<path d="M3790 2926 c-27 -33 18 -72 48 -42 13 13 14 20 6 34 -15 23 -38 26
-54 8z"/>
<path d="M2762 2796 c-29 -35 -52 -66 -52 -70 0 -3 34 -6 76 -6 l76 0 -7 63
c-4 34 -9 65 -12 70 -11 18 -33 2 -81 -57z"/>
<path d="M3266 2815 c-47 -42 -50 -47 -50 -95 -1 -48 2 -53 47 -98 l47 -47 93
49 c88 47 120 71 115 88 -4 9 -189 148 -197 148 -3 -1 -28 -21 -55 -45z"/>
<path d="M3709 2783 c-51 -48 -59 -61 -59 -92 0 -32 7 -42 58 -83 l57 -46 87
46 c78 42 87 50 92 81 4 29 -1 41 -42 92 -44 54 -50 58 -90 58 -39 1 -49 -4
-103 -56z"/>
<path d="M3124 2735 c-10 -25 4 -45 30 -45 25 0 39 20 30 45 -4 8 -17 15 -30
15 -14 0 -27 -7 -30 -15z"/>
<path d="M2632 2708 c-17 -17 -15 -36 7 -47 24 -13 55 8 49 35 -4 22 -38 30
-56 12z"/>
<path d="M3554 2705 c-10 -25 4 -45 30 -45 27 0 42 26 25 46 -15 19 -48 18
-55 -1z"/>
<path d="M3980 2696 c-27 -33 18 -72 48 -42 13 13 14 20 6 34 -15 23 -38 26
-54 8z"/>
<path d="M2942 2693 c-39 -4 -43 -7 -39 -26 3 -12 11 -70 18 -128 11 -97 15
-107 38 -120 24 -14 32 -12 123 36 60 31 98 56 98 66 0 39 -35 116 -68 147
-36 34 -48 36 -170 25z"/>
<path d="M2748 2683 c-16 -2 -28 -11 -28 -18 0 -8 -11 -22 -25 -31 -23 -15
-25 -23 -25 -84 0 -62 2 -69 26 -84 14 -10 29 -27 33 -39 6 -17 21 -24 68 -32
58 -11 61 -10 82 13 l21 24 -17 129 -17 129 -45 -1 c-25 -1 -58 -4 -73 -6z"/>
<path d="M3184 2636 c3 -10 11 -38 17 -62 6 -24 13 -44 15 -44 10 0 54 24 54
30 0 3 -21 26 -46 50 -27 26 -44 37 -40 26z"/>
<path d="M3435 2603 c-49 -25 -92 -47 -94 -49 -3 -3 19 -29 48 -58 72 -73 84
-68 122 49 15 49 25 93 21 96 -4 4 -47 -13 -97 -38z"/>
<path d="M3588 2623 c-22 -6 -75 -160 -60 -175 7 -7 41 6 107 42 53 29 93 56
88 60 -37 35 -97 80 -106 79 -7 -1 -20 -3 -29 -6z"/>
<path d="M3881 2585 c-36 -19 -69 -39 -73 -43 -8 -8 167 -162 183 -162 11 0
-3 225 -15 232 -18 12 -28 9 -95 -27z"/>
<path d="M3263 2513 c-18 -9 -33 -19 -33 -23 0 -3 17 -57 38 -120 40 -120 47
-129 112 -145 24 -6 27 -2 44 50 15 47 16 62 5 86 -6 16 -9 33 -5 36 6 7 -113
134 -124 132 -3 0 -20 -8 -37 -16z"/>
<path d="M3662 2467 c-52 -29 -94 -56 -95 -62 -1 -10 316 -47 360 -42 18 2 4
17 -72 80 -51 42 -95 77 -97 76 -2 0 -45 -24 -96 -52z"/>
<path d="M3087 2422 c-56 -30 -86 -52 -84 -62 2 -15 243 -97 254 -87 9 10 -58
197 -70 196 -7 -1 -51 -22 -100 -47z"/>
<path d="M2634 2425 c-10 -25 4 -45 30 -45 27 0 42 26 25 46 -15 19 -48 18
-55 -1z"/>
<path d="M3467 2413 c-12 -11 -8 -40 7 -52 28 -23 68 17 45 45 -12 15 -41 19
-52 7z"/>
<path d="M2905 2384 c-18 -18 -16 -33 7 -47 21 -14 48 -2 48 22 0 30 -34 45
-55 25z"/>
<path d="M2710 2361 c0 -17 86 -106 144 -148 60 -44 84 -51 103 -32 18 18 -16
98 -49 115 -15 8 -33 23 -41 34 -19 27 -157 54 -157 31z"/>
<path d="M3538 2339 c-10 -10 -28 -19 -41 -19 -19 0 -26 -9 -40 -53 -9 -30
-17 -56 -17 -59 0 -3 49 -20 110 -38 106 -32 111 -33 130 -15 14 13 29 16 56
12 33 -6 43 -1 130 70 52 42 92 78 90 81 -5 5 -355 42 -386 41 -8 0 -23 -9
-32 -20z"/>
<path d="M2973 2305 c-9 -26 29 -106 55 -116 13 -5 29 -22 34 -37 10 -26 21
-31 112 -55 115 -31 120 -32 134 -14 12 14 -14 118 -34 136 -5 5 -73 29 -152
54 -114 36 -144 43 -149 32z"/>
<path d="M3336 2156 c9 -25 20 -46 24 -46 9 0 34 69 28 76 -3 2 -19 7 -36 10
l-32 6 16 -46z"/>
<path d="M3412 2133 c-10 -32 -9 -40 6 -55 16 -16 23 -16 111 3 52 10 96 21
99 23 4 4 -180 66 -196 66 -5 0 -14 -17 -20 -37z"/>
<path d="M2973 2144 c-7 -18 6 -45 24 -51 6 -2 18 3 27 12 12 12 13 21 6 36
-13 23 -48 25 -57 3z"/>
<path d="M3700 2125 c-17 -21 -8 -50 17 -53 30 -4 49 31 27 52 -19 20 -28 20
-44 1z"/>
<path d="M3334 2056 c-10 -26 4 -48 28 -44 17 2 23 10 23 28 0 18 -6 26 -23
28 -13 2 -25 -3 -28 -12z"/>
<path d="M1870 1450 l0 -180 40 0 40 0 0 180 0 180 -40 0 -40 0 0 -180z"/>
<path d="M3027 1510 c-36 -138 -35 -150 8 -150 32 0 35 2 30 23 -3 12 -11 51
-19 87 -10 52 -14 60 -19 40z"/>
<path d="M4040 1450 l0 -180 40 0 40 0 0 180 0 180 -40 0 -40 0 0 -180z"/>
<path d="M4427 1520 c-10 -27 -30 -151 -24 -156 3 -3 18 -4 34 -2 l28 3 -16
85 c-9 47 -18 78 -22 70z"/>
<path d="M1790 1045 c0 -8 5 -15 10 -15 6 0 10 7 10 15 0 8 -4 15 -10 15 -5 0
-10 -7 -10 -15z"/>
<path d="M3140 1045 c0 -8 7 -15 15 -15 8 0 15 7 15 15 0 8 -7 15 -15 15 -8 0
-15 -7 -15 -15z"/>
<path d="M3580 1045 c0 -8 7 -15 15 -15 8 0 15 7 15 15 0 8 -7 15 -15 15 -8 0
-15 -7 -15 -15z"/>
</g>
</svg>
